<svg width="315" height="200" viewBox="0 0 315 200" fill="none" xmlns="http://www.w3.org/2000/svg">
<path d="M310.989 37.7419C309.347 35.9437 307.276 34.4937 304.928 33.4972C302.58 32.5007 300.012 31.9826 297.412 31.9807L74.5587 31.4702L70.1221 8.7615C69.649 6.3426 68.2349 4.14917 66.1281 2.5665C64.0213 0.98382 61.3566 0.113114 58.602 0.107321L11.7395 -1.99838e-05C8.63236 -0.00713714 5.64993 1.08618 3.44834 3.03941C1.24675 4.99265 0.00635115 7.6458 7.67558e-06 10.4152C-0.0063358 13.1846 1.2219 15.8434 3.41452 17.8067C5.60714 19.77 8.58453 20.877 11.6917 20.8841L48.7277 20.9689L81.7743 189.933C82.2473 192.352 83.6615 194.545 85.7683 196.128C87.8751 197.71 90.5398 198.581 93.2944 198.587L280.744 199.016C283.851 199.023 286.834 197.93 289.035 195.977C291.237 194.024 292.477 191.37 292.484 188.601C292.49 185.832 291.262 183.173 289.069 181.21C286.877 179.246 283.899 178.139 280.792 178.132L103.169 177.725L99.0868 156.832L276.036 157.237C280.099 157.242 284.039 155.995 287.188 153.708C290.336 151.421 292.502 148.235 293.317 144.687L314.62 50.7571C315.133 48.4839 315.074 46.1372 314.446 43.8864C313.818 41.6356 312.637 39.5369 310.989 37.7419Z" fill="#41403E"/>
</svg>
