<svg width="129" height="270" viewBox="0 0 129 270" fill="none" xmlns="http://www.w3.org/2000/svg">
<path d="M90.761 84.753C93.3722 99.5901 111.148 97.8495 119.759 87.1128C122.716 83.3974 124.588 79.1268 124.885 74.6932C125.395 67.4288 118.746 59.71 112.063 61.0025C101.275 63.0475 88.5134 71.9283 90.761 84.753ZM74.9887 52.2209C79.2799 66.5947 97.1437 63.0105 104.74 51.466C107.341 47.5166 108.788 43.0776 108.616 38.6753C108.363 31.4369 100.803 24.5434 94.1348 26.5048C83.3929 29.6336 71.3562 39.8116 74.9887 52.2209ZM35.7707 8.56767C34.3479 1.69512 24.6155 -1.97641 18.0197 1.09614C14.0137 2.96017 10.7297 6.255 8.40583 10.4101C1.73466 22.5335 7.02068 40.2017 21.8734 37.4705C34.6189 35.168 38.0235 19.681 35.7707 8.56767ZM57.3151 40.6058C69.8111 39.4886 74.8258 24.4194 73.9399 13.1445C73.3614 6.16733 64.4752 1.57562 57.8107 4.03182C53.7854 5.49435 50.2659 8.51736 47.5722 12.4249C39.8048 23.8191 42.8227 41.9398 57.3151 40.6058ZM73.4904 103.832C80.3139 91.4307 73.9888 76.4173 67.5839 67.8338C58.0216 55.0464 39.9994 48.4924 22.6001 54.4119C15.6027 56.795 4.02386 61.7802 1.51617 70.0502C-1.89175 81.4188 13.0263 87.3666 20.6017 89.8346C29.6405 92.7043 37.1175 94.7158 42.6648 102.682L43.2506 103.535C50.5284 113.351 63.8147 121.475 73.4904 103.832ZM27.5363 166.741C25.1014 160.371 15.0486 158.819 9.13947 163.068C5.56132 165.649 2.89538 169.503 1.3145 173.966C-3.28648 186.931 4.59733 202.963 18.5946 197.354C30.6657 192.498 31.4772 176.963 27.5363 166.741ZM54.5392 193.599C66.9985 190.155 69.3085 174.567 66.3143 163.774C64.4735 157.094 54.6312 154.29 48.32 157.876C44.5088 160.051 41.5003 163.632 39.5214 167.927C33.7118 180.454 40.065 197.541 54.5392 193.599ZM125.189 228.132C127.487 223.949 128.56 219.45 128.054 215.055C127.186 207.832 118.934 201.5 112.337 203.918C101.714 207.851 90.3293 218.897 95.1048 230.966C100.605 245.015 118.426 240.187 125.189 228.132ZM73.7346 202.488C80.2307 215.499 97.2354 208.516 102.819 195.891C104.732 191.554 105.447 186.955 104.576 182.753C103.141 175.814 94.5591 170.666 88.3219 173.866C78.2765 179.08 68.1008 191.272 73.7346 202.488ZM80.2955 239.248C76.1635 221.36 61.0617 209.499 45.1761 208.106C34.4964 207.184 18.4306 209.719 11.4745 222.065C1.58688 239.597 15.4959 246.595 27.6584 247.585L28.7136 247.644C38.3844 248.172 44.0488 253.453 51.234 259.631C57.3155 264.772 70.2677 274.32 78.0955 265.414C83.8458 258.929 81.9528 246.445 80.2955 239.248Z" fill="#F7EEE4"/>
</svg>
